<svg width="24" height="16" viewBox="0 0 24 16" fill="none" xmlns="http://www.w3.org/2000/svg">
<path d="M16.0214 8.0459L19.936 11.9605L16.0214 15.8751L12.1068 11.9605L16.0214 8.0459Z" fill="#BC4749"/>
<path d="M8.18842 8.04199L12.1013 11.9548L8.18842 15.8677L4.27557 11.9548L8.18842 8.04199Z" fill="#161616"/>
<path d="M12.1124 4.13477L16.0305 8.05285L12.1124 11.9709L8.19435 8.05285L12.1124 4.13477Z" fill="#BC4749"/>
<path d="M4.28326 4.13477L8.20135 8.05285L4.28326 11.9709L0.365183 8.05285L4.28326 4.13477Z" fill="#BC4749"/>
<path d="M16.0251 0.216797L19.9432 4.13488L16.0251 8.05296L12.1071 4.13488L16.0251 0.216797Z" fill="white"/>
<path d="M8.19598 0.216797L12.1141 4.13488L8.19598 8.05296L4.2779 4.13488L8.19598 0.216797Z" fill="#BC4749"/>
<path d="M19.9397 4.13135L23.8578 8.04943L19.9397 11.9675L16.0216 8.04943L19.9397 4.13135Z" fill="#BC4749"/>
<path d="M12.1124 4.13135L16.0305 8.04943L12.1124 11.9675L8.19435 8.04943L12.1124 4.13135Z" fill="#BC4749"/>
</svg>
