<svg xmlns="http://www.w3.org/2000/svg" width="40" height="40" fill="none"><path fill="#35F" d="M9.375 20.625h1.875v1.25H9.375v-1.25zm4.375 3.125h1.875V25H13.75v-1.25zm-4.375 0H12.5V25H9.375v-1.25zm-5 0h3.75V25h-3.75v-1.25zm3.75 3.125h7.5v1.25h-7.5v-1.25zm-3.75 0h2.5v1.25h-2.5v-1.25zm7.5 3.125h3.75v1.25h-3.75V30zm-7.5 0h6.25v1.25h-6.25V30zm3.75 3.125h3.75v1.25h-3.75v-1.25zm-3.75 0h2.5v1.25h-2.5v-1.25z"/><path fill="#35F" d="M37.5 18.75a.625.625 0 00-.625-.625h-3.75a.625.625 0 00-.625.625v3.125h-3.125a.625.625 0 00-.625.625v3.125h-3.125a.625.625 0 00-.625.625v3.125h-3.125a.625.625 0 00-.625.625v3.75h-4.483a1.871 1.871 0 00-3.201-.583 1.874 1.874 0 002.382 2.826 1.88 1.88 0 00.82-.993h.732v1.875a.625.625 0 01-.625.625H3.125a.625.625 0 01-.625-.625V22.5h3.125c.497 0 .974-.198 1.325-.55.352-.351.55-.828.55-1.325V17.5h9.375a.625.625 0 01.625.625v.625h1.25v-.625c0-.497-.198-.974-.55-1.325a1.872 1.872 0 00-1.325-.55H7.393a1.861 1.861 0 00-1.326.549l-4.268 4.268a1.851 1.851 0 00-.549 1.326v14.482c0 .497.198.974.55 1.325.351.352.828.55 1.325.55h13.75c.497 0 .974-.198 1.325-.55.352-.351.55-.828.55-1.325V35h20v-1.25H37.5v-15zm-31.25-.366v2.241a.625.625 0 01-.625.625H3.384l2.866-2.866zM15 35a.627.627 0 01-.442-1.067.626.626 0 011.067.442A.625.625 0 0115 35zm7.5-4.375H25v3.125h-2.5v-3.125zm3.75-3.75h2.5v6.875h-2.5v-6.875zm3.75-3.75h2.5V33.75H30V23.125zm3.75 10.625V19.375h2.5V33.75h-2.5zM3.125 16.876a1.877 1.877 0 001.872-1.765 1.886 1.886 0 00-.18-.918l1.875-1.875a1.881 1.881 0 001.526.04 1.87 1.87 0 001.049-1.107h2.716a1.871 1.871 0 001.93 1.243 1.878 1.878 0 001.686-1.558l3.53-3.026a1.873 1.873 0 002.744-1.748 1.874 1.874 0 10-3.595.831l-2.99 2.563a1.872 1.872 0 00-3.306.445H9.268a1.875 1.875 0 10-3.459 1.433l-1.875 1.875a1.876 1.876 0 10-.808 3.567zM20 5.626a.621.621 0 01.577.385.623.623 0 01-.816.817.618.618 0 01-.28-.23.625.625 0 01.519-.972zM13.75 10a.629.629 0 01.577.385.623.623 0 01-.816.817.618.618 0 01-.28-.23.625.625 0 01.519-.972zM7.5 10a.629.629 0 01.577.385.623.623 0 01-.816.817.618.618 0 01-.28-.23A.625.625 0 017.5 10zm-4.375 4.375a.629.629 0 01.577.385.623.623 0 01-.816.817.618.618 0 01-.28-.23.625.625 0 01.519-.972z"/><path fill="#35F" d="M25.747 15.871l-4.13 4.131h-5.475a1.871 1.871 0 00-2.084-1.222 1.874 1.874 0 101.265 3.465 1.88 1.88 0 00.82-.993H17.5v11.25h1.25v-11.25h3.125a.625.625 0 00.442-.183l4.51-4.51a8.147 8.147 0 10-1.08-.688zm-11.372 5.381a.621.621 0 01-.577-.385.623.623 0 01.816-.817.618.618 0 01.28.23.625.625 0 01-.519.972zm21.263-7.175l-3.621-4.075h5.454a6.844 6.844 0 01-1.833 4.074zm1.833-5.325H31.25V2.531a6.882 6.882 0 016.221 6.221zM30 2.531v6.846c0 .153.056.301.158.415l4.547 5.116a6.865 6.865 0 01-2.886 1.237 6.866 6.866 0 01-5.864-1.724 6.864 6.864 0 01-2.172-5.714 6.887 6.887 0 011.01-2.972A6.867 6.867 0 0130 2.532z"/></svg>