<svg xmlns="http://www.w3.org/2000/svg" width="40" height="41" fill="none"><path fill="#35F" d="M39.982 2.362a1.99 1.99 0 00-1.999-1.92H2a1.988 1.988 0 00-2 1.979v35.635a1.99 1.99 0 002 1.98h35.983c1.104 0 2-.887 2-1.98 0-43.931.04-34.316 0-35.695zm-1.332 0l-3.106 10.413-4.225-1.57V1.76h6.664c.348 0 .639.264.667.607v-.006zm-8.663 9.18l-4.911 13.37-4.419-4.924V1.761h9.33v9.78zm-10.662 6.816c-3.998-4.923-4.092-5.075-4.178-5.167a.673.673 0 00-.487-.211h-2.665a.663.663 0 00-.667.66c0 .364.299.66.667.66h1.552l-3.551 6.599V1.76h9.329v16.597zm-9.33 5.345l4.778-8.869 4.552 5.636v18.247h-9.33V23.703zm10.662-1.729c4.485 4.996 4.185 4.7 4.378 4.791.194.093.107.073 2.953.073a.663.663 0 00.666-.66.663.663 0 00-.666-.66h-1.713l3.712-10.11v23.309h-9.33V21.975zM2 1.761h6.664V12.98H7.33a.663.663 0 00-.666.66c0 .364.298.66.666.66h1.333v9.054L4.87 29.616l-3.538 1.498V2.421c0-.364.298-.66.666-.66zm-.666 36.296v-5.504l4.258-1.808c.28-.119.086.099 3.072-4.824v12.796H1.999a.663.663 0 01-.666-.66zm36.65.66H31.32V26.838h1.333a.663.663 0 00.666-.66.663.663 0 00-.666-.66H31.32V12.61l4.432 1.65a.665.665 0 00.9-.436l1.998-6.823v31.056c0 .364-.298.66-.666.66z"/><path fill="#35F" d="M25.795 28.352a.67.67 0 00-.946 0l-2 1.98a.659.659 0 00.301 1.108.673.673 0 00.646-.172l.86-.858v4.35c0 .364.298.66.666.66a.663.663 0 00.666-.66v-4.35l.86.858c.261.26.685.26.946 0a.657.657 0 000-.937l-1.999-1.98zM14.187 11.466a.67.67 0 00.946 0l2-1.98a.662.662 0 00.173-.64.673.673 0 00-1.12-.297l-.86.858V5.058a.663.663 0 00-.666-.66.663.663 0 00-.666.66v4.35l-.86-.859a.675.675 0 00-.946 0 .659.659 0 000 .937l1.999 1.98zm22.463 14.05h-1.332a.663.663 0 00-.667.658c0 .364.299.66.667.66h1.332a.664.664 0 00.667-.66.663.663 0 00-.667-.658zM3.332 14.298h1.333a.662.662 0 00.666-.659.662.662 0 00-.666-.659H3.332a.663.663 0 00-.666.66c0 .363.298.658.666.658z"/></svg>